REM DIRINDEX 1\2,1\3
REM DIRNAME folder01,folder02,folder03
TITLE ""
FILE "CD2Track22.mp3" MP3
  TRACK 01 AUDIO
    TITLE "0:"
    INDEX 01 00:00:00
  TRACK 02 AUDIO
    TITLE "2:cjc102_3358"
    INDEX 01 00:00:31
  TRACK 03 AUDIO
    TITLE "0:"
    INDEX 01 00:01:07
  TRACK 04 AUDIO
    TITLE "3:cjc102_3359"
    INDEX 01 00:01:13
  TRACK 05 AUDIO
    TITLE "0:"
    INDEX 01 00:02:47
  TRACK 06 AUDIO
    TITLE "3:cjc102_3360"
    INDEX 01 00:02:73
  TRACK 07 AUDIO
    TITLE "0:"
    INDEX 01 00:06:33
  TRACK 08 AUDIO
    TITLE "2:cjc102_3361"
    INDEX 01 00:06:39
  TRACK 09 AUDIO
    TITLE "0:"
    INDEX 01 00:07:56
  TRACK 10 AUDIO
    TITLE "3:cjc102_3362"
    INDEX 01 00:08:38
  TRACK 11 AUDIO
    TITLE "0:"
    INDEX 01 00:09:36
  TRACK 12 AUDIO
    TITLE "2:cjc102_3363"
    INDEX 01 00:09:51
  TRACK 13 AUDIO
    TITLE "0:"
    INDEX 01 00:10:63
  TRACK 14 AUDIO
    TITLE "3:cjc102_3364"
    INDEX 01 00:11:58
  TRACK 15 AUDIO
    TITLE "0:"
    INDEX 01 00:12:44
  TRACK 16 AUDIO
    TITLE "2:cjc102_3365"
    INDEX 01 00:12:65
  TRACK 17 AUDIO
    TITLE "0:"
    INDEX 01 00:14:07
  TRACK 18 AUDIO
    TITLE "3:cjc102_3366"
    INDEX 01 00:15:09
  TRACK 19 AUDIO
    TITLE "0:"
    INDEX 01 00:16:10
  TRACK 20 AUDIO
    TITLE "2:cjc102_3367"
    INDEX 01 00:16:14
  TRACK 21 AUDIO
    TITLE "0:"
    INDEX 01 00:17:39
  TRACK 22 AUDIO
    TITLE "3:cjc102_3368"
    INDEX 01 00:18:27
  TRACK 23 AUDIO
    TITLE "0:"
    INDEX 01 00:19:24
  TRACK 24 AUDIO
    TITLE "2:cjc102_3369"
    INDEX 01 00:19:26
  TRACK 25 AUDIO
    TITLE "0:"
    INDEX 01 00:20:43
  TRACK 26 AUDIO
    TITLE "3:cjc102_3370"
    INDEX 01 00:21:66
  TRACK 27 AUDIO
    TITLE "0:"
    INDEX 01 00:22:46
  TRACK 28 AUDIO
    TITLE "2:cjc102_3371"
    INDEX 01 00:23:08
  TRACK 29 AUDIO
    TITLE "0:"
    INDEX 01 00:24:29
  TRACK 30 AUDIO
    TITLE "3:cjc102_3372"
    INDEX 01 00:25:48
  TRACK 31 AUDIO
    TITLE "0:"
    INDEX 01 00:26:48
  TRACK 32 AUDIO
    TITLE "2:cjc102_3373"
    INDEX 01 00:27:00
  TRACK 33 AUDIO
    TITLE "0:"
    INDEX 01 00:28:17
  TRACK 34 AUDIO
    TITLE "3:cjc102_3374"
    INDEX 01 00:29:11
  TRACK 35 AUDIO
    TITLE "0:"
    INDEX 01 00:30:03
  TRACK 36 AUDIO
    TITLE "2:cjc102_3375"
    INDEX 01 00:30:22
  TRACK 37 AUDIO
    TITLE "0:"
    INDEX 01 00:31:47
  TRACK 38 AUDIO
    TITLE "3:cjc102_3376"
    INDEX 01 00:32:50
  TRACK 39 AUDIO
    TITLE "0:"
    INDEX 01 00:33:48
  TRACK 40 AUDIO
    TITLE "2:cjc102_3377"
    INDEX 01 00:33:64
  TRACK 41 AUDIO
    TITLE "0:"
    INDEX 01 00:35:00
  TRACK 42 AUDIO
    TITLE "3:cjc102_3378"
    INDEX 01 00:35:53
  TRACK 43 AUDIO
    TITLE "0:"
    INDEX 01 00:36:46
  TRACK 44 AUDIO
    TITLE "2:cjc102_3379"
    INDEX 01 00:37:48
  TRACK 45 AUDIO
    TITLE "0:"
    INDEX 01 00:39:03
  TRACK 46 AUDIO
    TITLE "3:cjc102_3380"
    INDEX 01 00:39:60
  TRACK 47 AUDIO
    TITLE "0:"
    INDEX 01 00:40:54
  TRACK 48 AUDIO
    TITLE "2:cjc102_3381"
    INDEX 01 00:41:06
  TRACK 49 AUDIO
    TITLE "0:"
    INDEX 01 00:42:14
  TRACK 50 AUDIO
    TITLE "3:cjc102_3382"
    INDEX 01 00:42:61
  TRACK 51 AUDIO
    TITLE "0:"
    INDEX 01 00:44:03
  TRACK 52 AUDIO
    TITLE "2:cjc102_3383"
    INDEX 01 00:44:69
  TRACK 53 AUDIO
    TITLE "0:"
    INDEX 01 00:46:00
  TRACK 54 AUDIO
    TITLE "3:cjc102_3384"
    INDEX 01 00:47:07
  TRACK 55 AUDIO
    TITLE "0:"
    INDEX 01 00:48:18
  TRACK 56 AUDIO
    TITLE "2:cjc102_3385"
    INDEX 01 00:48:46
  TRACK 57 AUDIO
    TITLE "0:"
    INDEX 01 00:49:63
  TRACK 58 AUDIO
    TITLE "3:cjc102_3386"
    INDEX 01 00:51:15
  TRACK 59 AUDIO
    TITLE "0:"
    INDEX 01 00:52:36
  TRACK 60 AUDIO
    TITLE "2:cjc102_3387"
    INDEX 01 00:52:47
  TRACK 61 AUDIO
    TITLE "0:"
    INDEX 01 00:53:66
  TRACK 62 AUDIO
    TITLE "3:cjc102_3388"
    INDEX 01 00:54:64
  TRACK 63 AUDIO
    TITLE "0:"
    INDEX 01 00:56:08
  TRACK 64 AUDIO
    TITLE "2:cjc102_3389"
    INDEX 01 00:56:47
  TRACK 65 AUDIO
    TITLE "0:"
    INDEX 01 00:57:70
  TRACK 66 AUDIO
    TITLE "3:cjc102_3390"
    INDEX 01 00:58:52
  TRACK 67 AUDIO
    TITLE "0:"
    INDEX 01 00:59:61
  TRACK 68 AUDIO
    TITLE "2:cjc102_3391"
    INDEX 01 01:00:39
  TRACK 69 AUDIO
    TITLE "0:"
    INDEX 01 01:01:54
  TRACK 70 AUDIO
    TITLE "3:cjc102_3392"
    INDEX 01 01:02:67
  TRACK 71 AUDIO
    TITLE "0:"
    INDEX 01 01:04:05
  TRACK 72 AUDIO
    TITLE "2:cjc102_3393"
    INDEX 01 01:04:58
  TRACK 73 AUDIO
    TITLE "0:"
    INDEX 01 01:05:71
  TRACK 74 AUDIO
    TITLE "3:cjc102_3394"
    INDEX 01 01:07:31
  TRACK 75 AUDIO
    TITLE "0:"
    INDEX 01 01:08:52
  TRACK 76 AUDIO
    TITLE "2:cjc102_3395"
    INDEX 01 01:09:24
  TRACK 77 AUDIO
    TITLE "0:"
    INDEX 01 01:10:33
  TRACK 78 AUDIO
    TITLE "2:cjc102_3396"
    INDEX 01 01:10:69
  TRACK 79 AUDIO
    TITLE "0:"
    INDEX 01 01:12:07
  TRACK 80 AUDIO
    TITLE "3:cjc102_3397"
    INDEX 01 01:13:12
  TRACK 81 AUDIO
    TITLE "0:"
    INDEX 01 01:14:37
  TRACK 82 AUDIO
    TITLE "2:cjc102_3398"
    INDEX 01 01:14:70
  TRACK 83 AUDIO
    TITLE "0:"
    INDEX 01 01:16:14
  TRACK 84 AUDIO
    TITLE "2:cjc102_3399"
    INDEX 01 01:16:50
  TRACK 85 AUDIO
    TITLE "0:"
    INDEX 01 01:17:65
  TRACK 86 AUDIO
    TITLE "3:cjc102_3400"
    INDEX 01 01:19:01
  TRACK 87 AUDIO
    TITLE "0:"
    INDEX 01 01:20:24
  TRACK 88 AUDIO
    TITLE "2:cjc102_3401"
    INDEX 01 01:20:59
  TRACK 89 AUDIO
    TITLE "0:"
    INDEX 01 01:22:05
  TRACK 90 AUDIO
    TITLE "2:cjc102_3402"
    INDEX 01 01:22:44
  TRACK 91 AUDIO
    TITLE "0:"
    INDEX 01 01:23:69
  TRACK 92 AUDIO
    TITLE "3:cjc102_3403"
    INDEX 01 01:24:22
  TRACK 93 AUDIO
    TITLE "0:"
    INDEX 01 01:25:33
  TRACK 94 AUDIO
    TITLE "2:cjc102_3404"
    INDEX 01 01:26:19
  TRACK 95 AUDIO
    TITLE "0:"
    INDEX 01 01:27:26
  TRACK 96 AUDIO
    TITLE "2:cjc102_3405"
    INDEX 01 01:27:57
  TRACK 97 AUDIO
    TITLE "0:"
    INDEX 01 01:28:72
  TRACK 98 AUDIO
    TITLE "3:cjc102_3406"
    INDEX 01 01:29:58
  TRACK 99 AUDIO
    TITLE "0:"
    INDEX 01 01:31:14
  TRACK 100 AUDIO
    TITLE "2:cjc102_3407"
    INDEX 01 01:32:00
  TRACK 101 AUDIO
    TITLE "0:"
    INDEX 01 01:35:26
  TRACK 102 AUDIO
    TITLE "3:cjc102_3408"
    INDEX 01 01:36:35
  TRACK 103 AUDIO
    TITLE "0:"
    INDEX 01 01:37:58
  TRACK 104 AUDIO
    TITLE "2:cjc102_3409"
    INDEX 01 01:38:47
  TRACK 105 AUDIO
    TITLE "0:"
    INDEX 01 01:43:21
  TRACK 106 AUDIO
    TITLE "3:cjc102_3410"
    INDEX 01 01:44:19
  TRACK 107 AUDIO
    TITLE "0:"
    INDEX 01 01:45:47
  TRACK 108 AUDIO
    TITLE "2:cjc102_3411"
    INDEX 01 01:45:59
  TRACK 109 AUDIO
    TITLE "0:"
    INDEX 01 01:47:15
  TRACK 110 AUDIO
    TITLE "3:cjc102_3412"
    INDEX 01 01:48:11
  TRACK 111 AUDIO
    TITLE "0:"
    INDEX 01 01:49:41
  TRACK 112 AUDIO
    TITLE "2:cjc102_3413"
    INDEX 01 01:49:73
  TRACK 113 AUDIO
    TITLE "0:"
    INDEX 01 01:51:15
